<?xml version="1.0" encoding="UTF-8"?>
<svg xmlns="http://www.w3.org/2000/svg" xmlns:xlink="http://www.w3.org/1999/xlink" width="px" height="px" viewBox="0 0 400 400" version="1.1">
<g id="surface1">
<path style=" stroke:none;fill-rule:nonzero;fill:rgb(0%,0%,0%);fill-opacity:1;" d="M 348.351562 176.101562 C 345.570312 170.335938 339.734375 166.671875 333.332031 166.667969 L 266.667969 166.667969 L 266.667969 50 C 266.667969 40.796875 259.203125 33.332031 250 33.332031 L 150 33.332031 C 140.796875 33.332031 133.332031 40.796875 133.332031 50 L 133.332031 166.667969 L 66.667969 166.667969 C 60.265625 166.675781 54.433594 170.351562 51.660156 176.125 C 48.882812 181.894531 49.660156 188.742188 53.648438 193.75 L 186.984375 360.417969 C 190.144531 364.371094 194.9375 366.675781 200 366.675781 C 205.0625 366.675781 209.855469 364.371094 213.015625 360.417969 L 346.351562 193.75 C 350.351562 188.734375 351.117188 181.882812 348.351562 176.101562 Z M 200 323.316406 L 101.351562 200 L 166.667969 200 L 166.667969 66.667969 L 233.332031 66.667969 L 233.332031 200 L 298.648438 200 Z M 200 323.316406 "/>
</g>
</svg>
