<?xml version="1.0" encoding="UTF-8"?>
<svg xmlns="http://www.w3.org/2000/svg" xmlns:xlink="http://www.w3.org/1999/xlink" width="px" height="px" viewBox="0 0 400 400" version="1.1">
<g id="surface1">
<path style=" stroke:none;fill-rule:nonzero;fill:rgb(0%,0%,0%);fill-opacity:1;" d="M 133.332031 179.332031 C 130.148438 179.332031 126.925781 179.332031 123.667969 179.332031 C 97 178.371094 71.132812 188.507812 52.222656 207.332031 L 49.554688 210.445312 L 49.554688 302.445312 L 94.890625 302.445312 L 94.890625 250.222656 L 101 243.332031 L 103.777344 240.109375 C 118.242188 225.25 136.253906 214.3125 156.109375 208.332031 C 146.167969 200.769531 138.328125 190.785156 133.332031 179.332031 Z M 133.332031 179.332031 "/>
<path style=" stroke:none;fill-rule:nonzero;fill:rgb(0%,0%,0%);fill-opacity:1;" d="M 348.222656 207 C 329.3125 188.175781 303.441406 178.035156 276.777344 179 C 272.730469 179.011719 268.6875 179.234375 264.667969 179.667969 C 259.578125 190.410156 251.953125 199.753906 242.445312 206.890625 C 263.644531 212.753906 282.847656 224.277344 298 240.222656 L 300.777344 243.332031 L 306.777344 250.222656 L 306.777344 302.554688 L 350.554688 302.554688 L 350.554688 210.109375 Z M 348.222656 207 "/>
<path style=" stroke:none;fill-rule:nonzero;fill:rgb(0%,0%,0%);fill-opacity:1;" d="M 123.332031 157.667969 C 124.554688 157.667969 125.554688 157.667969 126.777344 157.667969 C 123.507812 129.59375 137.042969 102.222656 161.332031 87.777344 C 149.429688 69.589844 126.3125 62.378906 106.179688 70.574219 C 86.042969 78.769531 74.535156 100.074219 78.714844 121.40625 C 82.894531 142.738281 101.597656 158.121094 123.332031 158.109375 Z M 123.332031 157.667969 "/>
<path style=" stroke:none;fill-rule:nonzero;fill:rgb(0%,0%,0%);fill-opacity:1;" d="M 271.445312 149.332031 C 271.578125 151.886719 271.578125 154.445312 271.445312 157 C 273.578125 157.339844 275.730469 157.523438 277.890625 157.554688 L 280 157.554688 C 301.636719 156.402344 319.449219 140.132812 322.554688 118.6875 C 325.660156 97.246094 313.195312 76.589844 292.773438 69.347656 C 272.355469 62.101562 249.660156 70.28125 238.554688 88.890625 C 258.984375 102.226562 271.339844 124.9375 271.445312 149.332031 Z M 271.445312 149.332031 "/>
<path style=" stroke:none;fill-rule:nonzero;fill:rgb(0%,0%,0%);fill-opacity:1;" d="M 248.222656 149.445312 C 248.222656 122.015625 225.984375 99.777344 198.554688 99.777344 C 171.125 99.777344 148.890625 122.015625 148.890625 149.445312 C 148.890625 176.875 171.125 199.109375 198.554688 199.109375 C 225.984375 199.109375 248.222656 176.875 248.222656 149.445312 Z M 248.222656 149.445312 "/>
<path style=" stroke:none;fill-rule:nonzero;fill:rgb(0%,0%,0%);fill-opacity:1;" d="M 201.222656 225.554688 C 171.902344 224.371094 143.367188 235.207031 122.222656 255.554688 L 119.445312 258.667969 L 119.445312 329 C 119.625 338.636719 127.585938 346.296875 137.222656 346.109375 L 264.890625 346.109375 C 274.523438 346.296875 282.484375 338.636719 282.667969 329 L 282.667969 258.890625 L 280 255.554688 C 258.988281 235.140625 230.492188 224.289062 201.222656 225.554688 Z M 201.222656 225.554688 "/>
</g>
</svg>
