<?xml version="1.0" encoding="UTF-8"?>
<svg xmlns="http://www.w3.org/2000/svg" xmlns:xlink="http://www.w3.org/1999/xlink" width="px" height="px" viewBox="0 0 400 400" version="1.1">
<g id="surface1">
<path style=" stroke:none;fill-rule:evenodd;fill:rgb(0%,0%,0%);fill-opacity:1;" d="M 83.332031 83.332031 C 83.332031 74.128906 75.871094 66.667969 66.667969 66.667969 C 57.460938 66.667969 50 74.128906 50 83.332031 L 50 233.328125 C 50 233.332031 50 233.335938 50 233.335938 L 50 316.667969 C 50 325.871094 57.460938 333.332031 66.667969 333.332031 L 333.332031 333.332031 C 342.539062 333.332031 350 325.871094 350 316.667969 C 350 307.460938 342.539062 300 333.332031 300 L 83.332031 300 L 83.332031 240.238281 L 150 173.570312 L 204.882812 228.453125 C 211.390625 234.960938 221.941406 234.960938 228.453125 228.453125 L 316.667969 140.238281 L 316.667969 183.332031 C 316.667969 192.539062 324.128906 200 333.332031 200 C 342.539062 200 350 192.539062 350 183.332031 L 350 100 C 350 90.796875 342.539062 83.332031 333.332031 83.332031 L 250 83.332031 C 240.796875 83.332031 233.332031 90.796875 233.332031 100 C 233.332031 109.203125 240.796875 116.667969 250 116.667969 L 293.097656 116.667969 L 216.667969 193.097656 L 161.785156 138.214844 C 155.277344 131.707031 144.722656 131.707031 138.214844 138.214844 L 83.332031 193.097656 Z M 83.332031 83.332031 "/>
</g>
</svg>
