<?xml version="1.0" encoding="UTF-8"?>
<svg xmlns="http://www.w3.org/2000/svg" xmlns:xlink="http://www.w3.org/1999/xlink" width="px" height="px" viewBox="0 0 400 400" version="1.1">
<g id="surface1">
<path style=" stroke:none;fill-rule:nonzero;fill:rgb(0%,0%,0%);fill-opacity:1;" d="M 213.015625 39.582031 C 206.667969 31.667969 193.332031 31.667969 186.984375 39.582031 L 53.648438 206.25 C 49.660156 211.257812 48.882812 218.105469 51.660156 223.875 C 54.433594 229.648438 60.265625 233.324219 66.667969 233.332031 L 133.332031 233.332031 L 133.332031 350 C 133.332031 359.203125 140.796875 366.667969 150 366.667969 L 250 366.667969 C 259.203125 366.667969 266.667969 359.203125 266.667969 350 L 266.667969 233.332031 L 333.332031 233.332031 C 339.734375 233.324219 345.566406 229.648438 348.339844 223.875 C 351.117188 218.105469 350.339844 211.257812 346.351562 206.25 Z M 250 200 L 233.332031 200 L 233.332031 333.332031 L 166.667969 333.332031 L 166.667969 200 L 101.351562 200 L 200 76.683594 L 298.648438 200 Z M 250 200 "/>
</g>
</svg>
